<mxfile host="Electron" agent="Mozilla/5.0 (X11; Linux x86_64) AppleWebKit/537.36 (KHTML, like Gecko) draw.io/26.0.4 Chrome/128.0.6613.186 Electron/32.2.5 Safari/537.36" version="26.0.4">
  <diagram name="Page-1" id="X0UYGTn_-aHgekAYB6ZK">
    <mxGraphModel dx="1114" dy="1198" grid="1" gridSize="10" guides="1" tooltips="1" connect="1" arrows="1" fold="1" page="1" pageScale="1" pageWidth="850" pageHeight="1100" math="0" shadow="0">
      <root>
        <mxCell id="0" />
        <mxCell id="1" parent="0" />
        <mxCell id="H8RUJ7AzdLlAqS-CscNs-8" value="&amp;nbsp;1&amp;nbsp;" style="edgeStyle=orthogonalEdgeStyle;rounded=0;orthogonalLoop=1;jettySize=auto;html=1;" edge="1" parent="1" source="H8RUJ7AzdLlAqS-CscNs-1" target="H8RUJ7AzdLlAqS-CscNs-4">
          <mxGeometry relative="1" as="geometry">
            <Array as="points">
              <mxPoint x="186" y="440" />
              <mxPoint x="186" y="440" />
            </Array>
          </mxGeometry>
        </mxCell>
        <mxCell id="H8RUJ7AzdLlAqS-CscNs-1" value="" style="sketch=0;outlineConnect=0;fontColor=#232F3E;gradientColor=none;fillColor=#232F3D;strokeColor=none;dashed=0;verticalLabelPosition=bottom;verticalAlign=top;align=center;html=1;fontSize=12;fontStyle=0;aspect=fixed;pointerEvents=1;shape=mxgraph.aws4.user;" vertex="1" parent="1">
          <mxGeometry x="66" y="420" width="78" height="78" as="geometry" />
        </mxCell>
        <mxCell id="H8RUJ7AzdLlAqS-CscNs-10" value="&amp;nbsp;4&amp;nbsp;" style="edgeStyle=orthogonalEdgeStyle;rounded=0;orthogonalLoop=1;jettySize=auto;html=1;exitX=0;exitY=0.75;exitDx=0;exitDy=0;exitPerimeter=0;" edge="1" parent="1" source="H8RUJ7AzdLlAqS-CscNs-2" target="H8RUJ7AzdLlAqS-CscNs-1">
          <mxGeometry relative="1" as="geometry">
            <Array as="points">
              <mxPoint x="196" y="479" />
              <mxPoint x="196" y="479" />
            </Array>
          </mxGeometry>
        </mxCell>
        <mxCell id="H8RUJ7AzdLlAqS-CscNs-2" value="" style="sketch=0;points=[[0,0,0],[0.25,0,0],[0.5,0,0],[0.75,0,0],[1,0,0],[0,1,0],[0.25,1,0],[0.5,1,0],[0.75,1,0],[1,1,0],[0,0.25,0],[0,0.5,0],[0,0.75,0],[1,0.25,0],[1,0.5,0],[1,0.75,0]];outlineConnect=0;fontColor=#232F3E;fillColor=#8C4FFF;strokeColor=#ffffff;dashed=0;verticalLabelPosition=bottom;verticalAlign=top;align=center;html=1;fontSize=12;fontStyle=0;aspect=fixed;shape=mxgraph.aws4.resourceIcon;resIcon=mxgraph.aws4.cloudfront;" vertex="1" parent="1">
          <mxGeometry x="406" y="420" width="78" height="78" as="geometry" />
        </mxCell>
        <mxCell id="H8RUJ7AzdLlAqS-CscNs-4" value="AWS Lambda" style="sketch=0;outlineConnect=0;fontColor=#232F3E;gradientColor=none;fillColor=#ED7100;strokeColor=none;dashed=0;verticalLabelPosition=top;verticalAlign=bottom;align=center;html=1;fontSize=12;fontStyle=0;aspect=fixed;pointerEvents=1;shape=mxgraph.aws4.lambda_function;labelPosition=center;" vertex="1" parent="1">
          <mxGeometry x="256" y="420" width="40" height="40" as="geometry" />
        </mxCell>
        <mxCell id="H8RUJ7AzdLlAqS-CscNs-7" style="edgeStyle=orthogonalEdgeStyle;rounded=0;orthogonalLoop=1;jettySize=auto;html=1;entryX=0;entryY=0.25;entryDx=0;entryDy=0;entryPerimeter=0;" edge="1" parent="1" source="H8RUJ7AzdLlAqS-CscNs-4" target="H8RUJ7AzdLlAqS-CscNs-2">
          <mxGeometry relative="1" as="geometry">
            <mxPoint x="406" y="439.5" as="targetPoint" />
          </mxGeometry>
        </mxCell>
        <mxCell id="H8RUJ7AzdLlAqS-CscNs-15" value="3 - If Image&lt;div&gt;does not exist&lt;/div&gt;&lt;div&gt;generate &amp;amp; save&lt;/div&gt;" style="edgeStyle=orthogonalEdgeStyle;rounded=0;orthogonalLoop=1;jettySize=auto;html=1;exitX=0;exitY=0.75;exitDx=0;exitDy=0;exitPerimeter=0;" edge="1" parent="1" source="H8RUJ7AzdLlAqS-CscNs-11" target="H8RUJ7AzdLlAqS-CscNs-14">
          <mxGeometry relative="1" as="geometry" />
        </mxCell>
        <mxCell id="H8RUJ7AzdLlAqS-CscNs-11" value="Amazon S3&lt;div&gt;Origin&lt;/div&gt;" style="sketch=0;points=[[0,0,0],[0.25,0,0],[0.5,0,0],[0.75,0,0],[1,0,0],[0,1,0],[0.25,1,0],[0.5,1,0],[0.75,1,0],[1,1,0],[0,0.25,0],[0,0.5,0],[0,0.75,0],[1,0.25,0],[1,0.5,0],[1,0.75,0]];outlineConnect=0;fontColor=#232F3E;fillColor=#7AA116;strokeColor=#ffffff;dashed=0;verticalLabelPosition=top;verticalAlign=bottom;align=center;html=1;fontSize=12;fontStyle=0;aspect=fixed;shape=mxgraph.aws4.resourceIcon;resIcon=mxgraph.aws4.s3;labelPosition=center;" vertex="1" parent="1">
          <mxGeometry x="706" y="420" width="78" height="78" as="geometry" />
        </mxCell>
        <mxCell id="H8RUJ7AzdLlAqS-CscNs-12" value="&amp;nbsp;2 - Fetch Image&amp;nbsp;" style="edgeStyle=orthogonalEdgeStyle;rounded=0;orthogonalLoop=1;jettySize=auto;html=1;exitX=1;exitY=0.25;exitDx=0;exitDy=0;exitPerimeter=0;entryX=0;entryY=0.25;entryDx=0;entryDy=0;entryPerimeter=0;" edge="1" parent="1" source="H8RUJ7AzdLlAqS-CscNs-2" target="H8RUJ7AzdLlAqS-CscNs-11">
          <mxGeometry relative="1" as="geometry" />
        </mxCell>
        <mxCell id="H8RUJ7AzdLlAqS-CscNs-14" value="" style="sketch=0;outlineConnect=0;fontColor=#232F3E;gradientColor=none;fillColor=#ED7100;strokeColor=none;dashed=0;verticalLabelPosition=bottom;verticalAlign=top;align=center;html=1;fontSize=12;fontStyle=0;aspect=fixed;pointerEvents=1;shape=mxgraph.aws4.lambda_function;labelPosition=center;" vertex="1" parent="1">
          <mxGeometry x="526" y="458" width="40" height="40" as="geometry" />
        </mxCell>
        <mxCell id="H8RUJ7AzdLlAqS-CscNs-16" style="edgeStyle=orthogonalEdgeStyle;rounded=0;orthogonalLoop=1;jettySize=auto;html=1;entryX=1;entryY=0.75;entryDx=0;entryDy=0;entryPerimeter=0;" edge="1" parent="1" source="H8RUJ7AzdLlAqS-CscNs-14" target="H8RUJ7AzdLlAqS-CscNs-2">
          <mxGeometry relative="1" as="geometry" />
        </mxCell>
        <mxCell id="H8RUJ7AzdLlAqS-CscNs-17" style="edgeStyle=orthogonalEdgeStyle;rounded=0;orthogonalLoop=1;jettySize=auto;html=1;entryX=0.5;entryY=1;entryDx=0;entryDy=0;entryPerimeter=0;dashed=1;" edge="1" parent="1" source="H8RUJ7AzdLlAqS-CscNs-14" target="H8RUJ7AzdLlAqS-CscNs-11">
          <mxGeometry relative="1" as="geometry">
            <Array as="points">
              <mxPoint x="546" y="550" />
              <mxPoint x="745" y="550" />
            </Array>
          </mxGeometry>
        </mxCell>
      </root>
    </mxGraphModel>
  </diagram>
</mxfile>
